PathFileType	4	(x/y/z)	A01_PREF_T0018.trc
DataRate	CameraRate	NumFrames	NumMarkers	Units	OrigDataRate	OrigDataStartFrame	OrigNumFrames
240	240	9	48	mm	240	272	310
Frame#	Time	TOP_HEAD			R_AC			L_AC			R_ASIS			L_ASIS			R_PSIS			L_PSIS			SACRAL			L_IC			R_IC			L_GT			R_GT			R_LAT_KNEE			R_MED_KNEE			L_MED_KNEE			L_LAT_KNEE			R_TOE			L_TOE			R_1ST_MET			L_1ST_MET			L_5TH_MET			R_5TH_MET			R_LAT_ANK			R_MED_ANK			L_MED_ANK			L_LAT_ANK			L_HEEL_SUP			R_HEEL_SUP			L_HEEL_LAT			R_HEEL_LAT			L_HEEL_MED			R_HEEL_MED			R_LL_PROX_POST			R_LL_PROX_ANT			R_LL_DIST_ANT			R_LL_DIST_POST			R_THIGH_PROX_POST			R_THIGH_PROX_ANT			R_THIGH_DIST_ANT			R_THIGH_DIST_POST			L_PROS_PROX_ANT			L_PROS_PROX_POST			L_PROS_DIST_POST			L_PROS_DIST_ANT			L_THIGH_PROX_ANT			L_THIGH_PROX_POST			L_THIGH_DIST_POST			L_THIGH_DIST_ANT			
		X1	Y1	Z1	X2	Y2	Z2	X3	Y3	Z3	X4	Y4	Z4	X5	Y5	Z5	X6	Y6	Z6	X7	Y7	Z7	X8	Y8	Z8	X9	Y9	Z9	X10	Y10	Z10	X11	Y11	Z11	X12	Y12	Z12	X13	Y13	Z13	X14	Y14	Z14	X15	Y15	Z15	X16	Y16	Z16	X17	Y17	Z17	X18	Y18	Z18	X19	Y19	Z19	X20	Y20	Z20	X21	Y21	Z21	X22	Y22	Z22	X23	Y23	Z23	X24	Y24	Z24	X25	Y25	Z25	X26	Y26	Z26	X27	Y27	Z27	X28	Y28	Z28	X29	Y29	Z29	X30	Y30	Z30	X31	Y31	Z31	X32	Y32	Z32	X33	Y33	Z33	X34	Y34	Z34	X35	Y35	Z35	X36	Y36	Z36	X37	Y37	Z37	X38	Y38	Z38	X39	Y39	Z39	X40	Y40	Z40	X41	Y41	Z41	X42	Y42	Z42	X43	Y43	Z43	X44	Y44	Z44	X45	Y45	Z45	X46	Y46	Z46	X47	Y47	Z47	X48	Y48	Z48	

272	1.1328	907.41	1771.8	316.21	691.95	1592.9	579.38	637.24	1578.1	126.61	660.02	1109.6	570.91	674.76	1056.3	217.51	448.19	1123.2	434.33	463.22	1113.6	305.44	438.75	1089.7	367.64	642.57	1180.5	174.96	636.62	1224.5	574.67	622.92	976.12	172	582.75	1004.5	604.57	502.49	601.38	537.89	536.59	594.66	408.71	770.02	588	386.43	745.38	595.24	229.16	592.11	65.302	451.81	1064.4	165.46	259.99	511.93	52.595	403.95	996.65	114.37	314.83	968.22	100.99	187.72	483.14	49.959	537.06	387.19	148.02	505.29	398.95	148.84	403.05	849.65	158.39	303.29	822.8	145.18	237.42	759.11	65.977	274.83	286.13	137.47	448.43	775.57	41.978	244.03	286.22	114.02	484.01	786.43	42.854	306.72	287.81	108.54	423.72	377.65	444.89	534.69	444.49	423.53	554.35	434.76	350.25	536.72	380.26	362.12	525.7	517.12	874.83	578.24	588.6	881.24	590	577.2	791.03	580.22	509.49	786.24	567.16	812.85	528.85	237.81	760.18	513.01	227.03	771.64	450.82	232.41	820.88	472.86	242.07	728.22	854.78	216.48	663.67	840.2	187.52	693.78	771.24	201.77	753.24	785.55	226.86
273	1.137	912.68	1770.9	315.59	697.11	1592.5	578.8	642.08	1577.6	126.26	664.93	1109.1	570.4	680.33	1055.2	217.06	453.37	1122.7	433.4	468.65	1112.8	304.6	444.01	1089	366.77	647.97	1179.9	174.52	641.35	1224	574.12	628.44	974.98	171.59	587.35	1004.3	604.11	504.88	601.64	537.61	539.08	594.67	408.4	774.96	586.97	386.73	750.8	593.94	229.35	592.09	65.272	451.85	1077	169.77	261.11	512.08	52.48	403.96	1010	117.43	315.71	982.34	103.58	188.4	483.3	50.047	537.03	387.74	148.66	505.1	399.66	149.42	402.9	862.28	158.72	303.51	835.93	145.17	237.54	773.48	64.728	274.61	286.71	138.48	448.15	790.49	41.047	243.86	286.72	115.04	483.77	801.1	42.117	306.64	288.28	109.51	423.52	379.3	445.69	534.26	446	424.09	554.1	436.02	350.81	536.52	381.6	362.9	525.35	521.09	875.06	577.83	592.61	881.12	589.54	580.76	790.97	579.8	512.98	786.53	566.85	819.4	528.67	238.19	767.01	511.93	227.22	779.53	449.93	232.58	828.38	472.8	242.44	733.47	853.51	216.2	668.96	838.93	187.13	698.96	769.99	201.55	758.37	784.29	226.77
274	1.1412	917.95	1770.1	314.95	702.29	1591.9	578.21	646.91	1577	125.9	669.85	1108.6	569.88	685.91	1054.1	216.61	458.57	1122.1	432.45	474.07	1111.8	303.75	449.29	1088.3	365.89	653.34	1179.3	174.08	646.09	1223.5	573.56	633.97	973.79	171.17	591.96	1004	603.64	507.33	601.87	537.32	541.63	594.65	408.09	779.98	585.93	387.02	756.27	592.63	229.55	592.08	65.243	451.88	1089.3	173.98	262.18	512.22	52.364	403.96	1023	120.43	316.56	996.08	106.16	189.08	483.46	50.133	537.01	388.28	149.3	504.91	400.38	149.98	402.74	874.66	159.09	303.75	848.77	145.22	237.68	787.52	63.614	274.43	287.28	139.48	447.86	805.07	40.245	243.74	287.22	116.06	483.53	815.43	41.498	306.59	288.75	110.48	423.31	380.99	446.48	533.83	447.55	424.62	553.85	437.31	351.37	536.31	382.96	363.68	525.01	525.08	875.26	577.42	596.64	880.97	589.08	584.35	790.88	579.38	516.51	786.79	566.55	825.94	528.46	238.56	773.84	510.86	227.42	787.35	449.06	232.76	835.83	472.72	242.81	738.75	852.22	215.92	674.3	837.63	186.74	704.2	768.71	201.33	763.56	783.01	226.68
275	1.1454	923.24	1769.1	314.29	707.49	1591.3	577.62	651.73	1576.4	125.54	674.77	1108.2	569.35	691.49	1052.9	216.14	463.76	1121.5	431.49	479.49	1110.9	302.87	454.57	1087.5	365	658.72	1178.7	173.63	650.85	1222.9	572.98	639.52	972.55	170.75	596.59	1003.8	603.16	509.83	602.08	537.03	544.24	594.61	407.77	785.1	584.87	387.31	761.8	591.33	229.76	592.06	65.215	451.91	1101.3	178.06	263.21	512.37	52.249	403.96	1035.6	123.36	317.39	1009.4	108.69	189.74	483.61	50.216	536.98	388.83	149.94	504.71	401.1	150.54	402.57	886.76	159.49	304	861.31	145.32	237.84	801.24	62.621	274.31	287.86	140.48	447.58	819.3	39.557	243.67	287.72	117.08	483.29	829.42	40.979	306.59	289.23	111.45	423.11	382.73	447.26	533.39	449.14	425.14	553.58	438.62	351.91	536.1	384.36	364.45	524.65	529.11	875.42	577	600.71	880.8	588.61	587.99	790.76	578.96	520.07	787.02	566.25	832.47	528.22	238.93	780.65	509.8	227.64	795.12	448.21	232.95	843.24	472.61	243.18	744.08	850.9	215.64	679.68	836.3	186.36	709.5	767.41	201.11	768.8	781.72	226.59
276	1.1495	928.53	1768.2	313.62	712.73	1590.7	577.02	656.56	1575.7	125.17	679.71	1107.6	568.81	697.08	1051.7	215.66	468.97	1120.8	430.51	484.9	1109.8	301.98	459.87	1086.6	364.09	664.08	1177.9	173.18	655.61	1222.3	572.37	645.09	971.28	170.33	601.23	1003.5	602.68	512.39	602.25	536.73	546.92	594.53	407.46	790.31	583.8	387.59	767.38	590.03	229.98	592.04	65.187	451.94	1112.9	181.98	264.17	512.51	52.132	403.96	1047.9	126.2	318.18	1022.4	111.16	190.37	483.76	50.298	536.95	389.38	150.57	504.52	401.83	151.1	402.41	898.59	159.9	304.26	873.54	145.45	238.02	814.6	61.731	274.24	288.45	141.47	447.3	833.14	38.964	243.64	288.23	118.1	483.04	843.04	40.543	306.62	289.71	112.42	422.9	384.51	448.03	532.94	450.78	425.63	553.31	439.97	352.43	535.88	385.8	365.2	524.29	533.18	875.55	576.58	604.81	880.59	588.16	591.65	790.62	578.55	523.66	787.22	565.95	839	527.95	239.28	787.45	508.76	227.86	802.82	447.38	233.16	850.59	472.48	243.54	749.46	849.58	215.36	685.11	834.94	185.98	714.86	766.09	200.91	774.11	780.41	226.5
277	1.1537	933.84	1767.1	312.92	717.99	1589.9	576.42	661.39	1575	124.79	684.67	1107.1	568.25	702.66	1050.5	215.17	474.19	1120	429.52	490.32	1108.7	301.08	465.17	1085.7	363.17	669.44	1177.2	172.72	660.39	1221.7	571.75	650.68	969.97	169.9	605.89	1003.1	602.18	515.01	602.4	536.43	549.67	594.42	407.15	795.63	582.73	387.87	773.03	588.74	230.2	592.02	65.161	451.98	1124.1	185.72	265.06	512.64	52.014	403.97	1059.9	128.91	318.92	1035	113.54	190.98	483.91	50.378	536.92	389.93	151.2	504.33	402.55	151.64	402.24	910.12	160.31	304.53	885.46	145.6	238.22	827.6	60.93	274.21	289.04	142.47	447.02	846.59	38.451	243.66	288.74	119.11	482.79	856.29	40.174	306.69	290.21	113.39	422.69	386.34	448.79	532.49	452.47	426.1	553.03	441.35	352.94	535.66	387.27	365.96	523.93	537.27	875.65	576.16	608.95	880.36	587.7	595.36	790.45	578.13	527.29	787.38	565.65	845.52	527.65	239.63	794.24	507.73	228.08	810.47	446.55	233.37	857.89	472.31	243.89	754.9	848.25	215.08	690.6	833.58	185.61	720.29	764.76	200.72	779.48	779.11	226.42
278	1.1579	939.16	1766.1	312.2	723.28	1589.1	575.81	666.23	1574.2	124.4	689.64	1106.5	567.69	708.26	1049.3	214.68	479.42	1119.2	428.51	495.75	1107.6	300.15	470.49	1084.8	362.24	674.81	1176.4	172.25	665.2	1221	571.1	656.29	968.64	169.48	610.56	1002.8	601.68	517.7	602.52	536.12	552.5	594.28	406.84	801.05	581.66	388.15	778.73	587.46	230.42	592	65.136	452.01	1135	189.25	265.89	512.78	51.894	403.97	1071.5	131.48	319.62	1047.1	115.81	191.55	484.06	50.457	536.89	390.48	151.83	504.14	403.28	152.18	402.07	921.36	160.71	304.8	897.04	145.75	238.45	840.23	60.205	274.24	289.64	143.46	446.74	859.64	38	243.72	289.25	120.13	482.53	869.15	39.857	306.79	290.7	114.36	422.47	388.23	449.54	532.03	454.2	426.55	552.74	442.77	353.43	535.43	388.79	366.7	523.56	541.4	875.7	575.73	613.11	880.1	587.24	599.1	790.24	577.72	530.96	787.52	565.34	852.03	527.3	239.97	801.02	506.7	228.32	818.05	445.74	233.59	865.14	472.11	244.24	760.39	846.93	214.81	696.15	832.2	185.26	725.8	763.42	200.54	784.92	777.81	226.34
279	1.1621	944.49	1765	311.47	728.61	1588.3	575.19	671.07	1573.3	123.99	694.63	1105.9	567.11	713.86	1048	214.18	484.67	1118.4	427.48	501.17	1106.4	299.22	475.83	1083.8	361.29	680.17	1175.5	171.78	670.02	1220.3	570.43	661.93	967.27	169.05	615.25	1002.4	601.17	520.45	602.61	535.81	555.41	594.1	406.55	806.59	580.59	388.41	784.5	586.19	230.65	591.97	65.111	452.04	1145.6	192.55	266.63	512.91	51.773	403.96	1082.7	133.89	320.25	1058.8	117.93	192.1	484.21	50.536	536.86	391.05	152.46	503.95	404.02	152.71	401.9	932.3	161.08	305.09	908.3	145.88	238.68	852.47	59.541	274.32	290.24	144.46	446.46	872.26	37.597	243.84	289.78	121.15	482.27	881.61	39.577	306.94	291.21	115.34	422.25	390.17	450.28	531.57	455.98	426.98	552.44	444.22	353.91	535.2	390.34	367.43	523.19	545.57	875.72	575.3	617.31	879.8	586.79	602.89	790.01	577.31	534.68	787.62	565.03	858.55	526.92	240.28	807.79	505.68	228.55	825.57	444.92	233.81	872.34	471.86	244.56	765.94	845.61	214.56	701.75	830.82	184.92	731.38	762.07	200.38	790.44	776.52	226.28
280	1.1663	949.84	1763.9	310.71	733.97	1587.4	574.55	675.93	1572.4	123.57	699.65	1105.3	566.54	719.47	1046.8	213.67	489.93	1117.5	426.45	506.61	1105.2	298.26	481.18	1082.7	360.33	685.55	1174.6	171.3	674.86	1219.6	569.74	667.59	965.89	168.61	619.96	1002	600.65	523.27	602.66	535.48	558.4	593.9	406.25	812.24	579.53	388.66	790.34	584.93	230.86	591.94	65.086	452.07	1155.9	195.6	267.3	513.04	51.65	403.96	1093.6	136.11	320.84	1070.2	119.9	192.6	484.36	50.614	536.83	391.62	153.09	503.76	404.76	153.24	401.73	942.94	161.41	305.38	919.21	145.99	238.94	864.31	58.926	274.45	290.86	145.45	446.18	884.45	37.228	244	290.31	122.18	482.01	893.66	39.319	307.13	291.72	116.33	422.02	392.16	451.01	531.11	457.82	427.39	552.14	445.72	354.37	534.96	391.95	368.16	522.82	549.77	875.71	574.87	621.54	879.47	586.34	606.71	789.75	576.9	538.44	787.69	564.71	865.07	526.49	240.58	814.55	504.66	228.78	833.02	444.11	234.04	879.49	471.57	244.87	771.56	844.3	214.31	707.42	829.44	184.59	737.05	760.74	200.23	796.03	775.25	226.22
